<?xml version="1.0" encoding="utf-8"?>
<!-- Generator: Adobe Illustrator 24.3.0, SVG Export Plug-In . SVG Version: 6.00 Build 0)  -->
<svg version="1.1" id="Layer_1" xmlns="http://www.w3.org/2000/svg" xmlns:xlink="http://www.w3.org/1999/xlink" x="0px" y="0px"
	 viewBox="0 0 1080 579.72" style="enable-background:new 0 0 1080 579.72;" xml:space="preserve">
<style type="text/css">
	.st0{fill:#262D37;}
	.st1{fill:#B9893D;}
	.st2{fill:#57585D;}
	.st3{opacity:0.85;}
	.st4{fill:#9C9A9D;}
	.st5{opacity:0.85;fill:#EABA81;}
	.st6{fill:#F2F2F4;}
	.st7{fill:#CBCBC9;}
	.st8{opacity:0.85;fill:url(#SVGID_1_);}
	.st9{opacity:0.85;fill:url(#SVGID_2_);}
	.st10{opacity:0.85;fill:url(#SVGID_3_);}
	.st11{opacity:0.85;fill:url(#SVGID_4_);}
	.st12{opacity:0.85;fill:url(#SVGID_5_);}
	.st13{opacity:0.85;fill:url(#SVGID_6_);}
	.st14{fill:url(#SVGID_7_);}
	.st15{opacity:0.6;fill:#FFFFFF;}
	.st16{opacity:0.85;fill:url(#SVGID_8_);}
	.st17{opacity:0.85;fill:url(#SVGID_9_);}
	.st18{opacity:0.85;fill:url(#SVGID_10_);}
	.st19{opacity:0.85;fill:url(#SVGID_11_);}
	.st20{opacity:0.85;fill:url(#SVGID_12_);}
	.st21{opacity:0.85;fill:url(#SVGID_13_);}
	.st22{opacity:0.85;fill:url(#SVGID_14_);}
	.st23{opacity:0.85;fill:url(#SVGID_15_);}
	.st24{opacity:0.85;fill:url(#SVGID_16_);}
	.st25{opacity:0.85;fill:url(#SVGID_17_);}
	.st26{opacity:0.85;fill:url(#SVGID_18_);}
	.st27{opacity:0.85;fill:url(#SVGID_19_);}
	.st28{fill:url(#SVGID_20_);}
	.st29{opacity:0.85;fill:url(#SVGID_21_);}
	.st30{opacity:0.85;fill:url(#SVGID_22_);}
	.st31{opacity:0.85;fill:url(#SVGID_23_);}
	.st32{opacity:0.85;fill:url(#SVGID_24_);}
	.st33{opacity:0.85;fill:url(#SVGID_25_);}
	.st34{opacity:0.85;fill:url(#SVGID_26_);}
	.st35{fill:#FFFFFF;}
	.st36{opacity:0.85;fill:#FFFFFF;}
	.st37{opacity:0.6;}
	.st38{opacity:0.85;fill:url(#SVGID_27_);}
	.st39{opacity:0.85;fill:url(#SVGID_28_);}
	.st40{opacity:0.85;fill:url(#SVGID_29_);}
	.st41{opacity:0.85;fill:url(#SVGID_30_);}
	.st42{opacity:0.85;fill:url(#SVGID_31_);}
	.st43{opacity:0.85;fill:url(#SVGID_32_);}
	.st44{fill:url(#SVGID_33_);}
	.st45{opacity:0.85;fill:url(#SVGID_34_);}
	.st46{opacity:0.85;fill:url(#SVGID_35_);}
	.st47{opacity:0.85;fill:url(#SVGID_36_);}
	.st48{opacity:0.85;fill:url(#SVGID_37_);}
	.st49{opacity:0.85;fill:url(#SVGID_38_);}
	.st50{opacity:0.85;fill:url(#SVGID_39_);}
	.st51{opacity:0.85;fill:url(#SVGID_40_);}
	.st52{opacity:0.85;fill:url(#SVGID_41_);}
	.st53{opacity:0.85;fill:url(#SVGID_42_);}
	.st54{opacity:0.85;fill:url(#SVGID_43_);}
	.st55{opacity:0.85;fill:url(#SVGID_44_);}
	.st56{opacity:0.85;fill:url(#SVGID_45_);}
	.st57{fill:url(#SVGID_46_);}
	.st58{opacity:0.85;fill:url(#SVGID_47_);}
	.st59{opacity:0.85;fill:url(#SVGID_48_);}
	.st60{opacity:0.85;fill:url(#SVGID_49_);}
	.st61{opacity:0.85;fill:url(#SVGID_50_);}
	.st62{opacity:0.85;fill:url(#SVGID_51_);}
	.st63{opacity:0.85;fill:url(#SVGID_52_);}
	.st64{opacity:0.85;fill:url(#SVGID_53_);}
	.st65{opacity:0.85;fill:url(#SVGID_54_);}
	.st66{opacity:0.85;fill:url(#SVGID_55_);}
	.st67{opacity:0.85;fill:url(#SVGID_56_);}
	.st68{opacity:0.85;fill:url(#SVGID_57_);}
	.st69{opacity:0.85;fill:url(#SVGID_58_);}
	.st70{fill:url(#SVGID_59_);}
	.st71{opacity:0.85;fill:url(#SVGID_60_);}
	.st72{opacity:0.85;fill:url(#SVGID_61_);}
	.st73{opacity:0.85;fill:url(#SVGID_62_);}
	.st74{opacity:0.85;fill:url(#SVGID_63_);}
	.st75{opacity:0.85;fill:url(#SVGID_64_);}
	.st76{opacity:0.85;fill:url(#SVGID_65_);}
	.st77{opacity:0.85;fill:url(#SVGID_66_);}
	.st78{opacity:0.85;fill:url(#SVGID_67_);}
	.st79{opacity:0.85;fill:url(#SVGID_68_);}
	.st80{opacity:0.85;fill:url(#SVGID_69_);}
	.st81{opacity:0.85;fill:url(#SVGID_70_);}
	.st82{opacity:0.85;fill:url(#SVGID_71_);}
	.st83{fill:url(#SVGID_72_);}
	.st84{opacity:0.85;fill:url(#SVGID_73_);}
	.st85{opacity:0.85;fill:url(#SVGID_74_);}
	.st86{opacity:0.85;fill:url(#SVGID_75_);}
	.st87{opacity:0.85;fill:url(#SVGID_76_);}
	.st88{opacity:0.85;fill:url(#SVGID_77_);}
	.st89{opacity:0.85;fill:url(#SVGID_78_);}
</style>

<g>
	<g>
		<g>
			<path class="st1" d="M553.3,398.33h-18.51v21.7h18.51v-7.36l6.87,1.65v4.05c0,3.14-0.51,5.27-1.52,6.41
				c-1.01,1.13-2.95,1.7-5.79,1.7h-17.62c-2.87,0-4.8-0.57-5.81-1.7c-1.01-1.14-1.51-3.27-1.51-6.41v-18.07
				c0-3.11,0.5-5.24,1.51-6.39s2.94-1.72,5.81-1.72h17.62c2.85,0,4.78,0.57,5.79,1.72c1.01,1.15,1.52,3.28,1.52,6.39v3.24
				l-6.87,1.26V398.33z"/>
			<path class="st1" d="M573.71,400.31c0-3.11,0.5-5.24,1.51-6.39c1.01-1.15,2.94-1.72,5.81-1.72h21.72c2.87,0,4.8,0.57,5.81,1.72
				c1.01,1.15,1.51,3.28,1.51,6.39v18.07c0,3.14-0.5,5.27-1.51,6.41c-1,1.13-2.94,1.7-5.81,1.7h-21.72c-2.87,0-4.8-0.57-5.81-1.7
				c-1.01-1.14-1.51-3.27-1.51-6.41V400.31z M580.58,420.03h22.64v-21.7h-22.64V420.03z"/>
			<path class="st1" d="M624.47,426.48V392.2h4.69l20.77,20.21c0.71,0.67,1.33,1.3,1.87,1.9c0.54,0.6,1.03,1.21,1.48,1.83
				c-0.11-1.92-0.19-3.29-0.22-4.09c-0.04-0.8-0.06-1.42-0.06-1.85v-18h6.17v34.28h-4.69l-21.67-21.18
				c-0.52-0.54-0.98-1.03-1.37-1.46c-0.39-0.43-0.75-0.88-1.09-1.33c0.09,1.06,0.16,2.06,0.21,3c0.05,0.94,0.07,1.76,0.07,2.45
				v18.52H624.47z"/>
			<path class="st1" d="M699.8,398.2h-19.32v7.36h18.4c2.89,0,4.83,0.57,5.85,1.72c1.01,1.15,1.52,3.28,1.52,6.39v4.7
				c0,3.11-0.51,5.25-1.52,6.39c-1.01,1.15-2.96,1.72-5.85,1.72h-18.23c-2.89,0-4.84-0.57-5.85-1.72c-1.01-1.15-1.52-3.28-1.52-6.39
				v-0.94l6.06-1.46v4.06h20.86v-7.82h-18.4c-2.87,0-4.8-0.57-5.81-1.72c-1.01-1.15-1.51-3.28-1.51-6.39v-3.8
				c0-3.11,0.5-5.24,1.51-6.39c1-1.15,2.94-1.72,5.81-1.72h16.75c2.77,0,4.69,0.55,5.74,1.65c1.05,1.1,1.58,3.06,1.58,5.87v0.71
				l-6.06,1.65V398.2z"/>
			<path class="st1" d="M734.23,398.33v28.15h-6.87v-28.15h-13.54v-6.13h34.01v6.13H734.23z"/>
			<path class="st1" d="M756.23,426.48V392.2h25.24c2.35,0,4.04,0.52,5.1,1.57c1.05,1.05,1.58,2.74,1.58,5.08v8.04
				c0,2.31-0.53,4-1.58,5.06c-1.05,1.06-2.75,1.59-5.1,1.59h-3.85l13.63,12.94h-9.86l-11.89-12.94h-6.51v12.94H756.23z
				 M778.43,398.13h-15.44v9.54h15.44c1.19,0,2.01-0.2,2.44-0.6c0.44-0.4,0.66-1.11,0.66-2.12v-4.12c0-0.99-0.22-1.69-0.66-2.09
				C780.44,398.33,779.62,398.13,778.43,398.13z"/>
			<path class="st1" d="M808.95,392.2v27.83h19.57V392.2h6.84v26.18c0,3.14-0.5,5.27-1.51,6.41c-1,1.13-2.94,1.7-5.81,1.7H809.4
				c-2.85,0-4.78-0.57-5.79-1.7c-1.01-1.14-1.52-3.27-1.52-6.41V392.2H808.95z"/>
			<path class="st1" d="M875.23,398.33h-18.51v21.7h18.51v-7.36l6.87,1.65v4.05c0,3.14-0.51,5.27-1.52,6.41
				c-1.01,1.13-2.95,1.7-5.79,1.7h-17.62c-2.87,0-4.8-0.57-5.81-1.7c-1.01-1.14-1.51-3.27-1.51-6.41v-18.07
				c0-3.11,0.5-5.24,1.51-6.39s2.94-1.72,5.81-1.72h17.62c2.85,0,4.78,0.57,5.79,1.72c1.01,1.15,1.52,3.28,1.52,6.39v3.24
				l-6.87,1.26V398.33z"/>
			<path class="st1" d="M910,398.33v28.15h-6.87v-28.15h-13.54v-6.13h34.01v6.13H910z"/>
			<path class="st1" d="M932,426.48V392.2h6.87v34.28H932z"/>
			<path class="st1" d="M953.33,400.31c0-3.11,0.5-5.24,1.51-6.39c1.01-1.15,2.94-1.72,5.81-1.72h21.72c2.87,0,4.8,0.57,5.81,1.72
				c1.01,1.15,1.51,3.28,1.51,6.39v18.07c0,3.14-0.5,5.27-1.51,6.41c-1,1.13-2.94,1.7-5.81,1.7h-21.72c-2.87,0-4.8-0.57-5.81-1.7
				c-1.01-1.14-1.51-3.27-1.51-6.41V400.31z M960.2,420.03h22.64v-21.7H960.2V420.03z"/>
			<path class="st1" d="M1004.09,426.48V392.2h4.69l20.77,20.21c0.71,0.67,1.33,1.3,1.87,1.9c0.54,0.6,1.03,1.21,1.48,1.83
				c-0.11-1.92-0.19-3.29-0.22-4.09c-0.04-0.8-0.06-1.42-0.06-1.85v-18h6.17v34.28h-4.69l-21.67-21.18
				c-0.52-0.54-0.98-1.03-1.37-1.46c-0.39-0.43-0.75-0.88-1.09-1.33c0.09,1.06,0.16,2.06,0.21,3c0.05,0.94,0.07,1.76,0.07,2.45
				v18.52H1004.09z"/>
		</g>
		<g>
			<path class="st6" d="M591.77,321.22v13.06h-46.72v-50.55h46.72v12.14h17.33v-7.53c0-7.25-1.28-12.21-3.84-14.89
				c-2.56-2.67-7.43-4-14.62-4h-44.46c-7.23,0-12.12,1.34-14.66,4c-2.54,2.67-3.81,7.63-3.81,14.89v42.09
				c0,7.3,1.27,12.28,3.81,14.92c2.54,2.64,7.42,3.97,14.66,3.97h44.46c7.19,0,12.06-1.32,14.62-3.97
				c2.56-2.64,3.84-7.62,3.84-14.92v-9.21H591.77z"/>
			<path class="st6" d="M627.51,349.32v-79.86h63.7c5.92,0,10.2,1.22,12.86,3.66c2.65,2.44,3.98,6.38,3.98,11.83v18.74
				c0,5.39-1.33,9.32-3.98,11.79c-2.65,2.47-6.94,3.7-12.86,3.7h-9.72l34.39,30.15H691l-30.02-30.15h-16.42v30.15H627.51z
				 M683.53,283.29h-38.97v22.21h38.97c3.01,0,5.06-0.46,6.17-1.4c1.1-0.93,1.66-2.58,1.66-4.95v-9.6c0-2.32-0.55-3.94-1.66-4.87
				C688.59,283.75,686.53,283.29,683.53,283.29z"/>
			<path class="st6" d="M724.35,288.35c0-7.25,1.27-12.21,3.81-14.89c2.54-2.67,7.42-4,14.66-4h54.82c7.23,0,12.12,1.34,14.66,4
				c2.54,2.67,3.81,7.63,3.81,14.89v42.09c0,7.3-1.27,12.28-3.81,14.92c-2.54,2.64-7.42,3.97-14.66,3.97h-54.82
				c-7.23,0-12.12-1.32-14.66-3.97c-2.54-2.64-3.81-7.62-3.81-14.92V288.35z M741.68,334.29h57.15v-50.55h-57.15V334.29z"/>
			<path class="st6" d="M850.56,349.32l-28.68-79.86h17.9l18.88,53.57l19.8-53.57h12.12l20.15,53.57l18.04-53.57h15.5l-28.75,79.86
				h-11.7l-20.51-55.23l-20.79,55.23H850.56z"/>
			<path class="st6" d="M951.41,349.32v-79.86h11.84l52.42,47.07c1.78,1.56,3.36,3.04,4.72,4.42c1.36,1.39,2.61,2.81,3.73,4.27
				c-0.28-4.48-0.47-7.66-0.56-9.52c-0.09-1.86-0.14-3.3-0.14-4.31v-41.93H1039v79.86h-11.84l-54.68-49.34
				c-1.32-1.26-2.47-2.39-3.45-3.4c-0.99-1.01-1.9-2.04-2.75-3.1c0.23,2.47,0.41,4.8,0.53,6.99c0.12,2.19,0.18,4.09,0.18,5.7v43.14
				H951.41z"/>
		</g>
		<g>
			<path class="st6" d="M640.05,490.64h-0.17l-9.22-13.82v21.06h-5.14V468.4h5.52l8.97,13.94l8.97-13.94h5.52v29.48h-5.14v-21.14
				L640.05,490.64z"/>
			<path class="st6" d="M690.29,497.88h-5.48l-2.99-7.12h-13.94l-3.03,7.12h-5.31l12.97-29.7h4.8L690.29,497.88z M674.84,474.38
				l-5.05,11.79h10.15L674.84,474.38z"/>
			<path class="st6" d="M715.9,468.4h5.14v29.48h-4.33l-16.22-20.98v20.98h-5.14V468.4h4.79l15.76,20.39V468.4z"/>
			<path class="st6" d="M756.84,497.88h-5.48l-2.99-7.12h-13.94l-3.03,7.12h-5.31l12.97-29.7h4.8L756.84,497.88z M741.39,474.38
				l-5.05,11.79h10.15L741.39,474.38z"/>
			<path class="st6" d="M783.95,495.56c-0.88,0.56-1.84,1.05-2.86,1.47c-1.03,0.42-2.13,0.75-3.31,0.99
				c-1.18,0.24-2.42,0.36-3.71,0.36c-2.3,0-4.39-0.39-6.28-1.16c-1.88-0.77-3.49-1.84-4.82-3.2c-1.33-1.36-2.37-2.97-3.1-4.82
				c-0.73-1.85-1.1-3.86-1.1-6.02c0-2.08,0.37-4.04,1.12-5.9c0.74-1.85,1.79-3.48,3.14-4.86c1.35-1.39,2.96-2.49,4.82-3.31
				c1.87-0.82,3.91-1.22,6.13-1.22c1.29,0,2.46,0.09,3.52,0.27c1.05,0.18,2.03,0.44,2.93,0.78c0.9,0.34,1.75,0.75,2.55,1.24
				c0.8,0.49,1.58,1.06,2.34,1.71l-3.29,3.92c-0.56-0.48-1.14-0.91-1.73-1.31c-0.59-0.39-1.21-0.72-1.85-0.99
				c-0.65-0.27-1.35-0.48-2.13-0.63c-0.77-0.15-1.62-0.23-2.55-0.23c-1.35,0-2.61,0.27-3.77,0.82c-1.17,0.55-2.18,1.3-3.03,2.26
				c-0.86,0.96-1.53,2.07-2.02,3.33c-0.49,1.27-0.74,2.62-0.74,4.05c0,1.52,0.24,2.93,0.72,4.22c0.48,1.29,1.16,2.41,2.04,3.36
				c0.88,0.94,1.94,1.68,3.16,2.22s2.59,0.8,4.11,0.8c1.4,0,2.72-0.2,3.94-0.61c1.22-0.41,2.28-0.95,3.18-1.63v-5.55h-7.54v-4.51
				h12.55v12.38C785.64,494.41,784.83,495,783.95,495.56z"/>
			<path class="st6" d="M814.93,473.07h-16.68v7.58h14.78v4.67h-14.78v7.88h16.89v4.68h-22.03V468.4h21.82V473.07z"/>
			<path class="st6" d="M835.86,490.64h-0.17l-9.22-13.82v21.06h-5.14V468.4h5.52l8.97,13.94l8.97-13.94h5.52v29.48h-5.14v-21.14
				L835.86,490.64z"/>
			<path class="st6" d="M879.71,473.07h-16.68v7.58h14.78v4.67h-14.78v7.88h16.89v4.68h-22.03V468.4h21.82V473.07z"/>
			<path class="st6" d="M906.67,468.4h5.14v29.48h-4.33l-16.22-20.98v20.98h-5.14V468.4h4.79l15.76,20.39V468.4z"/>
			<path class="st6" d="M931.85,497.88h-5.22V473.2h-9.35v-4.8h23.92v4.8h-9.35V497.88z"/>
		</g>
		<path class="st1" d="M604.74,485.77h-77.02v-6h77.02V485.77z M1039,479.77h-77.02v6H1039V479.77z"/>
	</g>
	<rect x="464.69" y="194.68" class="st7" width="3.5" height="310.1"/>
	<g>
		<polygon class="st1" points="187.13,203.3 229.65,147.83 250.49,175.02 258.37,185.3 267.96,176.6 361.01,92.22 365.25,110.2 
			393.42,56.95 338.48,72.19 353.22,81.87 260.08,166.32 237.78,137.22 229.65,126.61 221.52,137.22 185.47,184.25 142.98,145.26 
			142.98,276.21 229.65,221.25 316.31,276.21 316.31,206.74 316.31,193.27 316.31,159.06 303.4,170.91 303.4,193.27 303.4,206.74 
			303.4,252.74 241.7,213.61 229.65,205.97 217.6,213.61 155.89,252.74 155.89,174.62 		"/>
		<g>
			<linearGradient id="SVGID_1_" gradientUnits="userSpaceOnUse" x1="217.825" y1="196.9111" x2="284.3459" y2="242.9256">
				<stop  offset="0.0888" style="stop-color:#EABA81"/>
				<stop  offset="0.5316" style="stop-color:#E9B97F"/>
				<stop  offset="0.6911" style="stop-color:#E4B478"/>
				<stop  offset="0.8048" style="stop-color:#DBAB6D"/>
				<stop  offset="0.8967" style="stop-color:#CF9F5C"/>
				<stop  offset="0.9745" style="stop-color:#BF8F46"/>
				<stop  offset="1" style="stop-color:#B9893D"/>
			</linearGradient>
			<polygon class="st8" points="301.4,253.74 301.4,251.47 241.7,213.61 229.65,205.97 227.86,207.1 239.7,214.61 			"/>
			<linearGradient id="SVGID_2_" gradientUnits="userSpaceOnUse" x1="154.8897" y1="166.8404" x2="154.8897" y2="250.3008">
				<stop  offset="0.0888" style="stop-color:#EABA81"/>
				<stop  offset="0.5316" style="stop-color:#E9B97F"/>
				<stop  offset="0.6911" style="stop-color:#E4B478"/>
				<stop  offset="0.8048" style="stop-color:#DBAB6D"/>
				<stop  offset="0.8967" style="stop-color:#CF9F5C"/>
				<stop  offset="0.9745" style="stop-color:#BF8F46"/>
				<stop  offset="1" style="stop-color:#B9893D"/>
			</linearGradient>
			<polygon class="st9" points="153.89,172.84 153.89,204.72 153.89,205.32 153.89,253.99 155.89,252.72 155.89,205.32 
				155.89,204.4 155.89,174.68 			"/>
			<linearGradient id="SVGID_3_" gradientUnits="userSpaceOnUse" x1="315.31" y1="154.1698" x2="315.31" y2="260.2188">
				<stop  offset="0.0888" style="stop-color:#EABA81"/>
				<stop  offset="0.5316" style="stop-color:#E9B97F"/>
				<stop  offset="0.6911" style="stop-color:#E4B478"/>
				<stop  offset="0.8048" style="stop-color:#DBAB6D"/>
				<stop  offset="0.8967" style="stop-color:#CF9F5C"/>
				<stop  offset="0.9745" style="stop-color:#BF8F46"/>
				<stop  offset="1" style="stop-color:#B9893D"/>
			</linearGradient>
			<polygon class="st10" points="314.31,194.27 314.31,207.74 314.31,274.94 316.31,276.21 316.31,206.74 316.31,193.27 
				316.31,159.06 314.31,160.9 			"/>
			<linearGradient id="SVGID_4_" gradientUnits="userSpaceOnUse" x1="220.5733" y1="117.4907" x2="252.5834" y2="158.0034">
				<stop  offset="0.0888" style="stop-color:#EABA81"/>
				<stop  offset="0.5316" style="stop-color:#E9B97F"/>
				<stop  offset="0.6911" style="stop-color:#E4B478"/>
				<stop  offset="0.8048" style="stop-color:#DBAB6D"/>
				<stop  offset="0.8967" style="stop-color:#CF9F5C"/>
				<stop  offset="0.9745" style="stop-color:#BF8F46"/>
				<stop  offset="1" style="stop-color:#B9893D"/>
			</linearGradient>
			<polygon class="st11" points="235.78,138.22 258.08,167.32 259.71,165.84 237.78,137.22 229.65,126.61 228.26,128.42 			"/>
			<g class="st3">
				<linearGradient id="SVGID_5_" gradientUnits="userSpaceOnUse" x1="390.6091" y1="54.4004" x2="372.6034" y2="98.581">
					<stop  offset="0.0888" style="stop-color:#EABA81"/>
					<stop  offset="0.5316" style="stop-color:#E9B97F"/>
					<stop  offset="0.6911" style="stop-color:#E4B478"/>
					<stop  offset="0.8048" style="stop-color:#DBAB6D"/>
					<stop  offset="0.8967" style="stop-color:#CF9F5C"/>
					<stop  offset="0.9745" style="stop-color:#BF8F46"/>
					<stop  offset="1" style="stop-color:#B9893D"/>
				</linearGradient>
				<polygon class="st12" points="391.49,57.49 364.8,108.28 365.25,110.2 393.42,56.95 				"/>
			</g>
			<linearGradient id="SVGID_6_" gradientUnits="userSpaceOnUse" x1="129.9876" y1="132.9691" x2="175.0017" y2="176.6496">
				<stop  offset="0.0888" style="stop-color:#EABA81"/>
				<stop  offset="0.5316" style="stop-color:#E9B97F"/>
				<stop  offset="0.6911" style="stop-color:#E4B478"/>
				<stop  offset="0.8048" style="stop-color:#DBAB6D"/>
				<stop  offset="0.8967" style="stop-color:#CF9F5C"/>
				<stop  offset="0.9745" style="stop-color:#BF8F46"/>
				<stop  offset="1" style="stop-color:#B9893D"/>
			</linearGradient>
			<polygon class="st13" points="183.47,185.25 184.75,183.59 142.98,145.26 142.98,148.1 			"/>
		</g>
		<g>
			<path class="st7" d="M426.24,523.79c-41.16-12.69-111.6-21.06-191.61-21.06c-80,0-150.45,8.37-191.61,21.06H426.24z"/>
			<linearGradient id="SVGID_7_" gradientUnits="userSpaceOnUse" x1="51.1967" y1="514.6334" x2="418.0621" y2="514.6334">
				<stop  offset="0" style="stop-color:#CBCBC9"/>
				<stop  offset="0.0893" style="stop-color:#B6B6B6"/>
				<stop  offset="0.1885" style="stop-color:#A8A6A8"/>
				<stop  offset="0.3027" style="stop-color:#9F9DA0"/>
				<stop  offset="0.4645" style="stop-color:#9C9A9D"/>
				<stop  offset="0.7424" style="stop-color:#9E9C9F"/>
				<stop  offset="0.8425" style="stop-color:#A4A3A5"/>
				<stop  offset="0.9139" style="stop-color:#B0AEAF"/>
				<stop  offset="0.9712" style="stop-color:#C0BFBE"/>
				<stop  offset="1" style="stop-color:#CBCBC9"/>
			</linearGradient>
			<path class="st14" d="M51.2,523.79c45.98-11.57,112.46-18.31,183.43-18.31s137.45,6.73,183.43,18.31H51.2z"/>
		</g>
		<polygon class="st15" points="285.58,279.66 285.58,279.6 285.28,279.42 		"/>
		<polygon class="st15" points="261.07,264.48 261.07,264.43 260.8,264.26 		"/>
		<g>
			<path class="st2" d="M312.56,312.41l62.02,38.28v151.97c-3.76-0.55-7.6-1.08-11.5-1.58V357.11l-14.5-8.95v151.2
				c-3.78-0.41-7.62-0.81-11.5-1.18V341.06l-13-8.03v164.01c-3.79-0.3-7.63-0.58-11.5-0.85V312.41z M239.54,493.78
				c3.39,0,6.77,0.02,10.14,0.05v-236.4l13.73,8.5v228.11c4.29,0.09,8.55,0.2,12.78,0.34V273.84l11.73,7.26v213.72
				c4.3,0.19,8.56,0.4,12.78,0.64V289.02l15.73,9.74v-15.04l-79.53-49.26v259.31C237.78,493.78,238.66,493.78,239.54,493.78z"/>
			<path class="st1" d="M184.66,279.06l12.78-7.92v47.6l-12.78,7.92V279.06z M184.66,495.13c4.23-0.21,8.49-0.4,12.78-0.56V324.92
				l-12.78,7.92V495.13z M142.98,352.48l11.5-7.12v-47.6l-11.5,7.12V352.48z M162.7,340.26l12.78-7.92v-47.6l-12.78,7.92V340.26z
				 M103.96,502.75V396.23l14.5-8.95v113.49c3.77-0.47,7.61-0.93,11.5-1.35V380.18l13-8.03v125.94c3.79-0.36,7.62-0.69,11.5-1
				V351.54l-62.02,38.28v114.74C96.21,503.93,100.04,503.32,103.96,502.75z M209.89,494.17c4.24-0.11,8.5-0.2,12.78-0.26V234.47
				l-79.75,49.39v15.04l66.97-41.48V494.17z M162.7,496.46c4.22-0.3,8.48-0.58,12.78-0.84v-157.1l-12.78,7.92V496.46z"/>
			<linearGradient id="SVGID_8_" gradientUnits="userSpaceOnUse" x1="221.5005" y1="233.3613" x2="221.5005" y2="474.4392">
				<stop  offset="0.0888" style="stop-color:#EABA81"/>
				<stop  offset="0.5316" style="stop-color:#E9B97F"/>
				<stop  offset="0.6911" style="stop-color:#E4B478"/>
				<stop  offset="0.8048" style="stop-color:#DBAB6D"/>
				<stop  offset="0.8967" style="stop-color:#CF9F5C"/>
				<stop  offset="0.9745" style="stop-color:#BF8F46"/>
				<stop  offset="1" style="stop-color:#B9893D"/>
			</linearGradient>
			<path class="st16" d="M222.67,234.47v259.43c-0.78,0.01-1.55,0.03-2.33,0.05V235.92L222.67,234.47z"/>
			<linearGradient id="SVGID_9_" gradientUnits="userSpaceOnUse" x1="157.1747" y1="290.2816" x2="180.182" y2="328.2936">
				<stop  offset="0.0888" style="stop-color:#EABA81"/>
				<stop  offset="0.3199" style="stop-color:#E1B175"/>
				<stop  offset="0.739" style="stop-color:#CA9A54"/>
				<stop  offset="1" style="stop-color:#B9893D"/>
			</linearGradient>
			<path class="st17" d="M142.98,352.45l0.2-0.1l-0.2,0.12V352.45z M154.48,297.75l-2.33,1.45v47.6l2.33-1.45V297.75z
				 M184.66,326.66l0.17-0.11l-0.17,0.08V326.66z M197.44,271.15l-2.33,1.45v47.6l2.33-1.45V271.15z M175.49,284.74l-2.33,1.45v47.6
				l2.33-1.45V284.74z M162.7,340.26l0.23-0.14l-0.23,0.11V340.26z"/>
			<linearGradient id="SVGID_10_" gradientUnits="userSpaceOnUse" x1="149.5333" y1="329.3915" x2="149.5333" y2="489.2476">
				<stop  offset="0.0888" style="stop-color:#EABA81"/>
				<stop  offset="0.4405" style="stop-color:#E8B87F"/>
				<stop  offset="0.622" style="stop-color:#E3B377"/>
				<stop  offset="0.7646" style="stop-color:#D9A96A"/>
				<stop  offset="0.8862" style="stop-color:#CC9C57"/>
				<stop  offset="0.9946" style="stop-color:#BA8A3E"/>
				<stop  offset="1" style="stop-color:#B9893D"/>
			</linearGradient>
			<path class="st18" d="M127.64,499.68c0.78-0.09,1.55-0.18,2.33-0.27V380.16l-2.33,1.44V499.68z M140.64,373.57l-0.1,0.06
				l0.1-0.04V373.57z M101.63,503.1c0.78-0.12,1.55-0.24,2.33-0.36V396.21l-2.33,1.44V503.1z M116.13,388.7l-0.1,0.06l0.1-0.04
				V388.7z M152.14,352.98l2.33-1.44v145.55c-0.79,0.06-1.55,0.14-2.33,0.2V352.98z M173.15,339.97l2.33-1.45v157.1
				c-0.79,0.05-1.55,0.1-2.33,0.15V339.97z M195.1,326.37l2.33-1.45v169.64c-0.78,0.03-1.55,0.07-2.33,0.1V326.37z"/>
			<linearGradient id="SVGID_11_" gradientUnits="userSpaceOnUse" x1="315.076" y1="272.5031" x2="315.3261" y2="297.0108">
				<stop  offset="0" style="stop-color:#9C9A9D"/>
				<stop  offset="0.2505" style="stop-color:#8F8D91"/>
				<stop  offset="0.7153" style="stop-color:#6C6C70"/>
				<stop  offset="0.9594" style="stop-color:#57585D"/>
			</linearGradient>
			<polygon class="st19" points="316.43,283.73 314.09,282.28 314.09,297.1 316.43,298.77 			"/>
			<polygon class="st15" points="360.74,355.67 360.74,355.61 360.19,355.27 			"/>
			<polygon class="st15" points="334.73,339.62 334.73,339.56 334.34,339.32 			"/>
			<linearGradient id="SVGID_12_" gradientUnits="userSpaceOnUse" x1="274.0169" y1="289.9625" x2="274.0169" y2="488.3894">
				<stop  offset="0" style="stop-color:#9C9A9D"/>
				<stop  offset="0.2164" style="stop-color:#949296"/>
				<stop  offset="0.5525" style="stop-color:#7E7D81"/>
				<stop  offset="0.9646" style="stop-color:#5A5B60"/>
				<stop  offset="1" style="stop-color:#57585D"/>
			</linearGradient>
			<path class="st20" d="M273.85,272.34l2.33,1.45v220.59c-0.77-0.03-1.56-0.04-2.33-0.06V272.34z M247.34,493.81
				c0.78,0.01,1.56,0,2.33,0.01V257.37l-2.33-1.45V493.81z M300.69,289.14l-2.33-1.62v207.82c0.77,0.04,1.56,0.07,2.33,0.12V289.14z
				"/>
			<linearGradient id="SVGID_13_" gradientUnits="userSpaceOnUse" x1="348.1511" y1="350.9817" x2="348.1511" y2="502.404">
				<stop  offset="0" style="stop-color:#9C9A9D"/>
				<stop  offset="0.2164" style="stop-color:#949296"/>
				<stop  offset="0.5525" style="stop-color:#7E7D81"/>
				<stop  offset="0.9646" style="stop-color:#5A5B60"/>
				<stop  offset="1" style="stop-color:#57585D"/>
			</linearGradient>
			<path class="st21" d="M346.23,346.66l2.33,1.44v151.26c-0.77-0.08-1.56-0.16-2.33-0.25V346.66z M374.58,350.69l-2.33-1.44v153.08
				c0.78,0.11,1.56,0.22,2.33,0.33V350.69z M321.73,496.87c0.77,0.06,1.56,0.11,2.33,0.17V332.97l-2.33-1.44V496.87z"/>
		</g>
	</g>
</g>
</svg>
